<?xml version="1.0" encoding="UTF-8" standalone="no"?>
<svg width="120px" height="120px" viewBox="0 0 120 120" version="1.1">
  <g stroke="none" stroke-width="1" fill="none" fill-rule="evenodd">
    <path d="M120,108 C120,114.6 114.6,120 108,120 L12,120 C5.4,120 0,114.6 0,108 L0,12 C0,5.4 5.4,0 12,0 L108,0 C114.6,0 120,5.4 120,12 L120,108 L120,108 Z" id="Shape" fill="#2A739E" />
  </g>
  <rect style="fill:#FFFFFF;stroke:#000000;stroke-opacity:1" id="rect176" width="30" height="46" x="8" y="40" />
  <line x1="13" y1="46" x2="34" y2="46" stroke="black" id="line597" style="stroke-width:2;stroke-dasharray:none" />
  <line x1="13" y1="58" x2="20" y2="58" stroke="black" id="line599" style="stroke-width:2;stroke-dasharray:none" />
  <line x1="13" y1="70" x2="30" y2="70" stroke="black" id="line601" style="stroke-width:2;stroke-dasharray:none" />
  <rect style="fill:#FFFFFF;stroke:#000000;stroke-opacity:1" id="rect176-9" width="30" height="46" x="45" y="40" />
  <line x1="50" y1="46" x2="71" y2="46" stroke="black" id="line604" style="stroke-width:2;stroke-dasharray:none" />
  <line x1="50" y1="58" x2="57" y2="58" stroke="black" id="line606" style="stroke-width:2;stroke-dasharray:none" />
  <line x1="50" y1="70" x2="68" y2="70" stroke="black" id="line608" style="stroke-width:2;stroke-dasharray:none" />
  <rect style="fill:#FFFFFF;stroke:#000000;stroke-opacity:1" id="rect176-4" width="30" height="46" x="82" y="40" />
  <line x1="87" y1="46" x2="108" y2="46" stroke="black" id="line611" style="stroke-width:2;stroke-dasharray:none" />
  <line x1="87" y1="58" x2="94" y2="58" stroke="black" id="line613" style="stroke-width:2;stroke-dasharray:none" />
  <line x1="87" y1="70" x2="104" y2="70" stroke="black" id="line615" style="stroke-width:2;stroke-dasharray:none" />
</svg>